<svg version="1.1" id="Layer_1" xmlns="http://www.w3.org/2000/svg" xmlns:xlink="http://www.w3.org/1999/xlink" x="0px" y="0px"
	 width="100%" viewBox="0 0 992 992" enable-background="new 0 0 992 992" xml:space="preserve">
<path fill="#000000" opacity="1.000000" stroke="none" 
	d="
M632.219360,634.000000 
	C632.243530,661.830200 632.289246,689.160400 632.278625,716.490601 
	C632.276184,722.817322 629.637024,726.886353 624.638550,728.703247 
	C619.938660,730.411499 614.484863,729.192322 611.283325,725.683899 
	C608.219788,722.326721 608.036682,718.133911 608.035339,713.942078 
	C608.028015,690.611694 608.027771,667.281250 608.085266,643.950928 
	C608.160339,613.463928 608.257263,582.976807 608.435913,552.490295 
	C608.462463,547.956482 607.001892,546.144836 602.051147,546.156006 
	C531.392334,546.315674 460.732941,546.325378 390.074158,546.172180 
	C384.944336,546.161072 384.036469,548.128418 384.048126,552.626648 
	C384.184601,605.287354 384.169373,657.948486 384.192383,710.609497 
	C384.193451,713.109009 384.335480,715.621033 384.138763,718.105652 
	C383.596039,724.960449 379.130310,729.203186 372.473450,729.376465 
	C365.864380,729.548462 361.013397,725.517700 360.035492,718.883728 
	C359.770264,717.084595 359.859344,715.226746 359.859680,713.395874 
	C359.868774,659.901733 359.887695,606.407654 359.903442,552.913513 
	C359.905365,546.414246 359.814087,546.297119 353.167358,546.296204 
	C299.673950,546.289001 246.180557,546.295593 192.687149,546.295410 
	C182.191696,546.295349 176.601334,541.987427 176.819977,534.083984 
	C177.035614,526.288757 182.380905,522.540222 192.756317,522.550781 
	C246.915802,522.605896 301.075470,522.545837 355.234558,522.707336 
	C359.831665,522.721069 359.892090,520.393188 359.890106,517.103210 
	C359.858765,464.608948 359.873352,412.114716 359.872467,359.620453 
	C359.872162,341.622833 359.843781,323.625214 359.857330,305.627594 
	C359.862762,298.424957 359.787689,298.272736 352.746490,298.271729 
	C298.919739,298.264191 245.093002,298.277863 191.266251,298.269409 
	C183.619339,298.268219 179.691986,295.987549 177.638229,290.495941 
	C175.007446,283.461456 178.663315,276.303314 185.952850,274.543732 
	C188.025070,274.043579 190.239578,273.975708 192.388885,273.975311 
	C245.711685,273.965729 299.034485,273.995667 352.357300,274.007324 
	C359.869354,274.008942 359.875702,273.981995 359.874237,266.643890 
	C359.863617,213.150269 359.862396,159.656631 359.819672,106.163040 
	C359.815186,100.561386 360.701874,95.418488 366.158081,92.474106 
	C373.927124,88.281677 382.920410,93.029251 383.988831,101.962509 
	C384.382202,105.251472 384.155273,108.618568 384.155487,111.950027 
	C384.158752,163.777496 384.206879,215.605118 384.060303,267.432190 
	C384.046570,272.287445 385.208496,274.120483 390.446930,274.108948 
	C460.105621,273.955688 529.764832,274.023071 599.423889,274.006409 
	C608.169983,274.004303 608.117737,273.927704 608.114441,265.181885 
	C608.096802,218.226532 608.110718,171.271194 608.104309,124.315849 
	C608.103394,117.826225 607.972229,111.335762 608.041199,104.847176 
	C608.128967,96.603287 612.955383,91.021492 619.881470,90.952080 
	C627.299072,90.877747 632.193237,96.337471 632.200195,104.862831 
	C632.242798,157.523178 632.227966,210.183594 632.304871,262.843872 
	C632.323486,275.592560 630.599182,273.969452 643.421509,273.980988 
	C695.082642,274.027466 746.743835,273.983795 798.404968,273.985352 
	C800.402039,273.985413 802.421204,273.940857 804.392151,274.202728 
	C811.733215,275.178284 815.655273,279.912323 815.309753,287.201874 
	C814.999939,293.737000 810.152832,298.209229 802.972534,298.256927 
	C789.641235,298.345459 776.308960,298.282867 762.977051,298.280212 
	C721.814758,298.272034 680.652405,298.262573 639.490112,298.253296 
	C632.242188,298.251648 632.286804,298.250916 632.287720,305.733612 
	C632.295959,374.726288 632.287659,443.718933 632.283875,512.711609 
	C632.283813,513.878113 632.417786,515.064392 632.254272,516.207764 
	C631.545776,521.161316 633.391174,522.771179 638.571655,522.743591 
	C679.732849,522.525085 720.895569,522.609497 762.057861,522.598938 
	C775.545044,522.595520 789.034424,522.436462 802.518616,522.632629 
	C811.270020,522.759888 815.563110,527.182800 815.314331,535.064819 
	C815.091064,542.136169 810.095886,546.298218 801.682129,546.298828 
	C747.687988,546.302673 693.693909,546.287720 639.699768,546.274719 
	C632.208191,546.272888 632.204651,546.261902 632.205627,553.512451 
	C632.209106,580.174927 632.215210,606.837463 632.219360,634.000000 
M607.999329,456.500000 
	C608.003296,406.012299 607.989197,355.524567 608.045532,305.036926 
	C608.050049,301.001770 608.013245,298.135895 602.386353,298.149078 
	C531.403625,298.315369 460.420410,298.287140 389.437531,298.174805 
	C385.135803,298.167999 384.096954,299.801270 384.101227,303.747681 
	C384.177124,374.730225 384.184143,445.712952 384.081421,516.695435 
	C384.074982,521.124207 385.221924,522.742065 389.976685,522.732910 
	C460.626160,522.596924 531.276062,522.609375 601.925537,522.754456 
	C606.765747,522.764404 608.249146,521.244446 608.191223,516.484741 
	C607.952271,496.825287 608.035461,477.161926 607.999329,456.500000 
z"/>
<path fill="#000000" opacity="1.000000" stroke="none" 
	d="
M531.621826,896.644165 
	C524.060120,891.447083 522.223511,883.692932 520.866882,874.691467 
	C516.132751,879.713867 512.278442,884.413086 507.644531,888.339722 
	C499.293396,895.416321 490.720795,894.794922 483.734863,886.407166 
	C476.002258,877.122681 476.535950,866.608459 479.838745,856.114807 
	C484.062866,842.693970 491.279175,831.668518 506.280548,828.250610 
	C511.573517,827.044617 516.588562,828.412964 521.420593,830.202881 
	C525.699524,831.788025 529.914368,832.806396 534.527100,832.697876 
	C540.314270,832.561584 542.870178,834.831116 544.481934,840.490906 
	C545.927368,845.566467 545.315002,850.755066 545.349915,855.893494 
	C545.399658,863.219727 545.138855,870.547607 545.093140,877.875305 
	C545.081848,879.680481 545.041687,881.709778 547.256897,882.468994 
	C549.124756,883.109070 550.511414,882.025879 551.620483,880.741882 
	C558.919800,872.292542 565.726624,863.467773 569.723999,852.917053 
	C574.394348,840.590088 581.993835,831.680603 595.585938,829.176575 
	C604.394653,827.553894 616.013855,833.456970 619.970215,841.493591 
	C621.196106,843.983826 621.187012,846.244019 619.485779,848.495667 
	C617.690002,850.872375 615.377563,851.678223 612.464600,851.196899 
	C604.604797,849.898254 602.276672,851.288208 599.300659,858.649475 
	C597.046204,864.225952 596.808533,870.030640 597.448669,875.854675 
	C598.054016,881.361206 600.244507,882.371460 605.107849,879.812866 
	C612.333374,876.011658 617.384155,869.664429 623.253479,864.274048 
	C626.070312,861.686951 628.865540,859.066101 631.817932,856.639832 
	C634.431152,854.492310 637.373962,854.038025 639.859924,856.747437 
	C642.396729,859.512268 641.425171,862.415405 639.140259,864.774109 
	C630.809509,873.373901 622.879028,882.318176 613.643250,890.083313 
	C596.983154,904.090759 581.936890,894.906616 572.733459,883.342285 
	C571.506958,881.801147 570.611572,879.996582 569.336853,877.951599 
	C565.705383,882.406738 562.421814,886.749634 558.810791,890.800598 
	C550.942444,899.627319 541.832886,901.593262 531.621826,896.644165 
M510.459106,865.938843 
	C515.607727,859.692505 520.447632,853.265137 523.184937,845.391663 
	C519.209290,843.212708 515.262939,841.006531 512.516846,845.248230 
	C507.534729,852.943909 504.972717,861.571411 504.984894,871.203308 
	C507.607147,870.057617 508.467773,867.921265 510.459106,865.938843 
z"/>
<path fill="#000000" opacity="1.000000" stroke="none" 
	d="
M863.791565,855.764282 
	C866.969910,853.042664 869.816345,850.473022 872.825867,848.111145 
	C875.227783,846.226074 877.782654,846.226929 880.024292,848.486267 
	C882.092468,850.570862 882.262085,853.003784 880.447998,855.248169 
	C868.932739,869.494324 857.647034,884.120117 841.400696,893.374023 
	C827.103271,901.517944 810.101990,893.782471 805.942322,877.939880 
	C805.414429,875.929138 806.138855,872.686707 802.564636,872.824646 
	C799.424561,872.945862 796.835083,873.477112 795.105164,877.221191 
	C789.790771,888.723022 781.191528,896.695068 768.143188,898.538208 
	C759.946289,899.696106 753.278931,896.852783 747.926880,890.326599 
	C734.345703,873.766357 740.710632,842.554810 756.235596,831.188171 
	C758.833557,829.286011 761.683777,828.082275 764.906738,827.633057 
	C769.677002,826.968262 774.522766,827.075012 779.250916,825.838135 
	C782.281616,825.045227 785.094177,826.176270 787.679260,828.016418 
	C796.644836,834.398376 799.718262,843.549194 800.141785,853.998108 
	C800.195740,855.329346 800.242432,856.660950 800.304626,857.991821 
	C800.372803,859.452087 800.795410,860.661987 802.548706,860.686096 
	C803.993225,860.705933 804.525208,859.731689 804.809387,858.485229 
	C805.474792,855.567078 805.977783,852.592590 806.899963,849.755737 
	C810.212341,839.565796 815.646545,831.089844 826.059814,826.768372 
	C832.522278,824.086365 838.540527,824.430237 844.556641,828.361023 
	C850.925659,832.522400 854.802979,838.220459 856.676392,845.424500 
	C859.590149,856.628967 852.624878,865.885498 840.984558,866.248474 
	C838.690247,866.320129 836.384094,866.014771 834.047180,865.881165 
	C833.770325,866.375244 833.439148,866.771973 833.310974,867.226074 
	C832.343872,870.653259 831.189575,874.635498 834.438904,876.971497 
	C837.890503,879.452881 841.177185,876.597290 843.740540,874.321716 
	C850.460876,868.355957 856.949219,862.128906 863.791565,855.764282 
M779.356506,869.950562 
	C773.654724,867.931763 769.021179,864.377319 765.240540,858.813477 
	C761.344788,865.951050 761.554565,872.231934 764.316406,878.319519 
	C766.021301,882.077271 769.530090,882.618408 773.250427,881.118713 
	C777.679688,879.333130 781.573425,873.970337 780.768188,870.807800 
	C780.707581,870.569702 780.251953,870.432129 779.356506,869.950562 
M779.552673,838.891479 
	C777.638550,839.166016 776.851257,840.522400 776.206665,842.160645 
	C773.830017,848.201172 778.441467,855.272156 785.950500,857.015320 
	C789.208130,850.190308 786.619995,842.059570 779.552673,838.891479 
M838.958130,852.065369 
	C841.218445,850.068848 841.835693,848.027161 838.973572,845.325012 
	C837.897827,847.927673 834.373596,849.687500 838.958130,852.065369 
z"/>
<path fill="#000000" opacity="1.000000" stroke="none" 
	d="
M251.540619,766.066650 
	C254.039230,768.308777 255.770798,770.546509 254.649170,773.718445 
	C253.503845,776.957336 250.890457,778.150391 247.645279,778.405029 
	C240.680511,778.951721 233.728333,779.702271 226.755371,780.082214 
	C223.413116,780.264465 222.090164,781.405579 222.172791,784.905945 
	C223.021439,820.859558 223.674240,856.817810 224.555984,892.770508 
	C224.788422,902.248047 219.215485,909.619385 210.246887,910.759644 
	C202.129272,911.791687 195.480713,906.307556 193.685272,896.898926 
	C192.215546,889.197144 191.876251,881.368835 191.783112,873.557922 
	C191.495255,849.418579 191.111053,825.269043 193.746094,801.208679 
	C194.288773,796.253540 194.911255,791.301758 195.696014,786.380127 
	C196.400650,781.961121 195.231995,779.919495 190.249146,780.218018 
	C183.777069,780.605713 177.262451,780.259766 170.766342,780.283264 
	C168.554962,780.291260 166.434158,779.992859 164.519714,778.854370 
	C161.923813,777.310608 160.132477,775.220215 160.542358,771.960144 
	C160.921265,768.946838 162.915680,767.407166 165.638641,766.439392 
	C168.922455,765.272278 172.262787,765.726624 175.540298,766.033875 
	C193.533493,767.720459 211.457153,765.672974 229.411591,765.265808 
	C236.670685,765.101196 243.996078,763.585876 251.540619,766.066650 
z"/>
<path fill="#000000" opacity="1.000000" stroke="none" 
	d="
M482.225647,764.961121 
	C486.531494,764.887146 490.365021,764.702576 494.190430,764.809265 
	C499.190399,764.948730 502.337952,767.700134 502.288116,771.782471 
	C502.231415,776.428162 499.248779,778.084656 495.126953,778.418518 
	C488.165009,778.982483 481.210022,779.712402 474.236542,780.023376 
	C470.275055,780.200012 469.141510,781.895081 469.349915,785.656738 
	C471.302826,820.903076 470.300751,856.229248 472.159210,891.482666 
	C472.690918,901.568237 467.743073,908.635193 459.455597,910.368042 
	C451.490479,912.033569 444.283051,907.898132 442.032928,899.940125 
	C440.909607,895.967468 440.129944,891.800049 439.916687,887.683289 
	C438.330536,857.059692 438.525330,826.459351 441.826416,795.934204 
	C442.218964,792.304321 442.859222,788.697021 443.497314,785.099182 
	C444.089233,781.761963 443.176575,780.117493 439.409668,780.235229 
	C432.920959,780.438049 426.421021,780.297119 419.925934,780.271729 
	C418.430359,780.265930 416.903046,780.316284 415.445892,780.043701 
	C410.849640,779.183960 407.267426,775.540466 407.928009,772.094788 
	C408.793579,767.579712 412.327148,765.928162 416.419556,765.869263 
	C420.729858,765.807190 425.045898,766.529053 429.364624,766.602112 
	C446.849609,766.897888 464.301422,765.961426 482.225647,764.961121 
z"/>
<path fill="#000000" opacity="1.000000" stroke="none" 
	d="
M701.471802,780.297180 
	C694.368591,780.274414 687.706726,780.268005 681.044922,780.249817 
	C679.879761,780.246643 678.704224,780.283630 677.551514,780.148132 
	C672.730347,779.581055 668.880737,776.174072 668.913391,772.573792 
	C668.946777,768.903748 672.806030,765.873901 678.023804,765.897278 
	C682.840210,765.918884 687.652649,766.567688 692.470337,766.620117 
	C712.118286,766.833801 731.727905,765.632263 751.348938,764.857910 
	C753.175720,764.785767 755.052063,764.654724 756.831482,764.969055 
	C760.682312,765.649353 763.278442,767.837463 763.259705,772.005798 
	C763.241333,776.100098 760.556030,777.904663 756.834900,778.259094 
	C749.548828,778.953125 742.257446,779.656433 734.951904,780.054993 
	C731.214478,780.258789 730.163940,781.871582 730.371155,785.423401 
	C732.010376,813.522766 731.559998,841.672241 732.274353,869.794739 
	C732.473022,877.613586 733.033936,885.423828 733.196960,893.242798 
	C733.360535,901.085754 728.870544,907.583435 722.040588,909.902832 
	C713.409851,912.833740 705.191223,908.060547 702.698364,898.507385 
	C700.100220,888.550842 700.968933,878.323608 700.530884,868.195251 
	C699.688293,848.714600 700.225769,829.263123 701.730652,809.840820 
	C702.346497,801.892273 703.531128,793.989075 704.330872,786.052551 
	C704.555847,783.819214 706.081482,780.794250 701.471802,780.297180 
z"/>
<path fill="#000000" opacity="1.000000" stroke="none" 
	d="
M259.830872,847.645264 
	C259.201202,857.532227 258.632446,866.961670 258.073425,876.229370 
	C259.977234,876.966431 260.518219,875.847290 260.934296,875.087036 
	C265.558502,866.636658 271.306458,858.814758 274.821289,849.739746 
	C280.485168,835.116150 294.865967,826.525330 308.185760,829.649231 
	C314.499329,831.129944 319.252716,834.886780 323.008972,840.005188 
	C324.932251,842.625916 325.486847,845.427490 323.521057,848.347839 
	C321.568146,851.249084 318.843781,851.746704 315.619476,851.101929 
	C308.950653,849.768127 306.742218,850.906921 303.881104,857.046570 
	C301.042267,863.138245 300.668152,869.607666 301.410370,876.125610 
	C302.002991,881.329895 304.250397,882.338806 308.849731,879.849060 
	C314.195892,876.955139 318.419159,872.683289 322.739044,868.514221 
	C327.047394,864.356262 330.947052,859.746765 335.918182,856.308289 
	C338.748566,854.350647 341.601562,854.168823 343.943085,856.962646 
	C346.149719,859.595581 345.470337,862.381042 343.275574,864.615662 
	C334.882904,873.160583 327.047607,882.208496 317.791321,889.959656 
	C300.476959,904.458496 285.245941,894.694763 276.229309,882.807922 
	C275.131012,881.360229 274.268829,879.733337 272.934021,877.612305 
	C270.842468,880.708496 268.994629,883.575439 267.016174,886.349182 
	C259.695465,896.612610 248.205399,897.058411 240.046509,887.472229 
	C235.543564,882.181580 233.434784,875.893738 232.856827,869.163818 
	C231.941925,858.510315 232.901764,847.854248 233.912048,837.258179 
	C234.393936,832.204224 237.655151,828.381897 242.160461,825.976807 
	C249.281662,822.175293 257.124237,826.039490 259.081512,834.302795 
	C260.082001,838.526794 260.521759,842.836487 259.830872,847.645264 
z"/>
<path fill="#000000" opacity="1.000000" stroke="none" 
	d="
M239.853760,797.961731 
	C241.149902,791.620239 244.023849,788.801086 248.384857,789.186096 
	C252.485138,789.548096 256.081390,793.198547 256.421783,797.344116 
	C256.832855,802.350525 254.730942,805.647888 250.384064,806.815552 
	C245.443222,808.142761 241.447708,804.936157 239.853760,797.961731 
z"/>
</svg>